<?xml version="1.0" encoding="utf-8"?>
<!-- Generator: Adobe Illustrator 16.0.4, SVG Export Plug-In . SVG Version: 6.00 Build 0)  -->
<!DOCTYPE svg PUBLIC "-//W3C//DTD SVG 1.1//EN" "http://www.w3.org/Graphics/SVG/1.1/DTD/svg11.dtd">
<svg version="1.1" id="Layer_1" xmlns="http://www.w3.org/2000/svg" xmlns:xlink="http://www.w3.org/1999/xlink" x="0px" y="0px"
	 width="720px" height="720px" viewBox="0 0 720 720" enable-background="new 0 0 720 720" xml:space="preserve">
<g id="BErEOo.tif">
	<g>
		<path fill="none" d="M67.025,262.502c30.407-117.623,60.819-235.245,91.172-352.881c0.455-1.758,0.889-2.016,2.648-1.561
			C361.059-40.126,561.283,11.634,761.521,63.344c1.758,0.454,2.017,0.889,1.561,2.647
			c-60.865,235.232-121.68,470.478-182.443,705.737c-0.454,1.758-0.887,2.014-2.647,1.56
			C377.779,721.476,177.554,669.715-22.685,618.005c-1.758-0.454-2.016-0.889-1.56-2.647
			C6.215,497.749,36.618,380.126,67.025,262.502z M615.933,314.891c2.3-11.02,4.433-18.715,5.451-26.555
			c4.2-32.423,4.433-64.771,2.016-97.532c-2.505-33.934-15.508-61.428-39.556-84.415c-36.01-34.424-81.413-50.312-128.269-61.182
			c-61.022-14.157-114.734,6.207-154.585,51.011c-45.291,50.92-74.481,112.186-91.47,179.093
			c-8.304,32.706-27.986,61.864-34.422,95.435c-7.882,41.11-28.567,74.463-60.013,101.191
			c-12.355,10.502-24.978,22.144-42.008,24.234c-10.388,1.273-20.11,2.929-21.574,14.535c-1.417,11.245,0.17,22.021,12.631,28.714
			c18.379,9.87,36.754,2.451,54.158-0.303c19.076-3.018,38.994-8.029,54.833-21.347c0.333-0.281,1.806-2.024,1.777,0.256
			c-0.335,25.75,8.107,49.937,13.361,74.676c1.89,8.897,6.637,16.323,16.394,18.087c9.545,1.726,16.222-3.598,20.867-11.167
			c9.065-14.779,21.981-26.873,29.518-42.689c0.268-0.562,0.881-0.96,1.334-1.437c0.203,0.409,0.549,0.806,0.588,1.23
			c1.595,17.216,10.666,31.412,18.955,45.792c11.652,20.215,27.4,38.987,47.809,32.058c15.651-5.312,27.887-17.167,36.106-32.198
			c0.328-0.597,0.73-1.151,1.098-1.727c0.117,0.277,0.33,0.549,0.341,0.832c0.845,19.037,3.247,37.823,7.165,56.521
			c1.482,7.075,2.691,13.019,10.039,15.636c6.318,2.25,11.436-0.271,16.164-4.334c19.409-16.665,36.2-34.981,39.935-61.802
			c0.335-2.413,1.563-4.705,2.376-7.055c0.087,2.603,0.397,5.218,0.228,7.802c-1.78,27.069,7.076,43.449,32.544,46.196
			c15.898,1.716,26.215,11.084,39.509,15.748c12.69,4.452,24.914,4.121,34.413-5.994c7.566-8.059,4.332-17.195-1.531-25.178
			c-6.324-8.606-12.451-17.611-15.288-27.741c-5.284-18.856,1.331-37.619,4.073-56.033c3.465-23.236,17.582-43.293,24.669-65.653
			c8.651-27.309,16.582-54.863,25.987-81.905C592.746,375.519,605.173,343.775,615.933,314.891z"/>
		<path fill-rule="evenodd" clip-rule="evenodd" fill="#68A9F3" d="M615.933,314.891c-26.314,70.653-110.893,218.649-89.109,296.394
			c30.672,109.517-87.852,49.849-89.874-10.833c-39.291,113.461-50.004,60.881-76.02,0.201
			c-48.355,75.811-81.597,1.084-104.555-45.155c-52.279,54.848-82.837,67.135-81.474-37.47
			c-0.72,55.222-173.394,11.253-115.958-18.463c113.3-58.617,123.309-157.494,165.667-273.303
			c35.59-97.302,112.578-208.52,230.965-181.054C601.921,79.157,645.515,173.183,615.933,314.891
			C605.173,343.775,618.232,303.871,615.933,314.891z M416.639,196.283c6.793-25.601-8.389-51.618-34.227-58.658
			c-25.49-6.944-51.813,8.463-58.777,34.402c-6.843,25.488,8.482,51.667,34.287,58.572
			C383.631,237.478,409.76,222.208,416.639,196.283z M497.522,278.542c24.765,6.846,51.353-8.285,58.29-33.174
			c6.947-24.931-7.722-52.015-31.781-58.676c-26.821-7.426-53.291,6.955-60.385,32.812
			C456.594,245.196,471.618,271.38,497.522,278.542z M396.499,357.008c21.895,5.159,42.255-3.725,53.547-23.504
			c1.953-3.419,1.92-6.986-1.187-9.901c-2.717-2.551-5.52-1.714-8.385-0.026c-5.631,3.317-10.427,7.66-16.458,10.698
			c-18.108,9.121-41.007-1.14-45.015-21.155c-1.424-7.109-7.021-10.026-13.107-9.518c-6.456,0.539-7.695,6.518-7.189,12.073
			C360.443,334.816,376.578,352.314,396.499,357.008z"/>
		<path fill-rule="evenodd" clip-rule="evenodd" fill="#020203" d="M416.639,196.283c-6.879,25.924-33.008,41.195-58.717,34.316
			c-25.805-6.905-41.13-33.084-34.287-58.572c6.964-25.939,33.287-41.347,58.777-34.402
			C408.25,144.665,423.432,170.683,416.639,196.283z M399.977,175.751c-1.867-8.381-4.178-17.9-13.863-22.439
			c-4.046-1.896-9.544-1.616-12.714,3.018c-1.79,2.618-1.473,5.954,1.291,7.796c5.106,3.402,7.095,8.667,9.361,13.849
			c1.548,3.544,4.241,5.473,8.091,5.214C395.961,182.932,398.453,180.736,399.977,175.751z"/>
		<path fill-rule="evenodd" clip-rule="evenodd" fill="#020203" d="M497.522,278.542c-25.904-7.162-40.929-33.346-33.876-59.038
			c7.094-25.857,33.563-40.238,60.385-32.812c24.06,6.661,38.729,33.745,31.781,58.676
			C548.875,270.257,522.287,285.388,497.522,278.542z M546.188,232.302c2.07-12.275-5.655-20.767-15.192-28.313
			c-4.214-3.334-8.742-3.566-12.398,0.479c-3.652,4.041-2.47,8.301,1.297,11.808c4.291,3.996,9.698,7.427,9.309,14.193
			c-0.307,5.289,1.367,8.94,6.557,10.02C541.142,241.609,544.315,238.664,546.188,232.302z"/>
		<path fill-rule="evenodd" clip-rule="evenodd" fill="#020203" d="M396.499,357.008c-19.921-4.693-36.056-22.191-37.794-41.334
			c-0.506-5.555,0.733-11.534,7.189-12.073c6.087-0.508,11.684,2.409,13.107,9.518c4.008,20.015,26.906,30.276,45.015,21.155
			c6.031-3.038,10.827-7.38,16.458-10.698c2.865-1.688,5.668-2.524,8.385,0.026c3.106,2.916,3.14,6.482,1.187,9.901
			C438.754,353.283,418.394,362.167,396.499,357.008z"/>
		<path fill-rule="evenodd" clip-rule="evenodd" fill="#FFFFFF" d="M399.977,175.751c-1.523,4.984-4.016,7.181-7.834,7.438
			c-3.85,0.259-6.543-1.67-8.091-5.214c-2.267-5.182-4.255-10.447-9.361-13.849c-2.764-1.842-3.081-5.178-1.291-7.796
			c3.17-4.634,8.668-4.915,12.714-3.018C395.799,157.851,398.109,167.37,399.977,175.751z"/>
		<path fill-rule="evenodd" clip-rule="evenodd" fill="#FFFFFF" d="M546.188,232.302c-1.872,6.362-5.046,9.307-10.429,8.187
			c-5.189-1.08-6.863-4.731-6.557-10.02c0.39-6.766-5.018-10.198-9.309-14.193c-3.767-3.507-4.949-7.767-1.297-11.808
			c3.656-4.045,8.185-3.812,12.398-0.479C540.532,211.536,548.258,220.027,546.188,232.302z"/>
	</g>
</g>
</svg>
